#!OML:ASF E:\Mandelcareful walks\Project 1\Capture day 1\Session 1\Subject1.ASF
:FULLY-SPECIFIED
:DEGREES
496
root 6.27961 15.5154 0.0559919 -133.826 -82.3228 137.863
lowerback 19.6747 -2.41732 -1.73598
upperback 7.1756 -4.09056 -2.08416
thorax -3.28268 -2.22841 -0.318541
lowerneck -21.276 -12.4255 -14.6021
upperneck 16.3723 -15.3811 12.3056
head 10.9029 -6.71699 4.13241
rclavicle -8.94531e-016 1.21259e-014
rhumerus -69.7925 22.015 -100.618
rradius 88.6724
rwrist -15.6664
rhand -27.0964 -5.36078
rfingers 7.12502
rthumb -0.513224 -35.3399
lclavicle -8.94531e-016 1.21259e-014
lhumerus -18.4854 -15.0866 85.0343
lradius 53.7064
lwrist 18.3022
lhand -22.1156 -12.2493
lfingers 7.12502
lthumb 4.29719 17.6871
rfemur -26.9098 -10.1002 2.96364
rtibia 52.7711
rfoot -23.9424 -7.54606
rtoes -12.6075
lfemur -28.6106 13.0313 -11.224
ltibia 53.4235
lfoot -21.286 2.75828
ltoes -12.742
497
root 6.27662 15.513 0.0715237 -134.632 -82.2334 138.595
lowerback 19.4531 -2.31349 -1.74226
upperback 7.39881 -3.9638 -2.13614
thorax -2.93343 -2.17728 -0.416519
lowerneck -21.1878 -12.5257 -14.5516
upperneck 16.093 -15.5328 12.378
head 10.8103 -6.78341 4.12153
rclavicle 5.55603e-014 -1.2921e-014
rhumerus -69.2201 22.0021 -100.202
rradius 89.8744
rwrist -16.3095
rhand -26.4092 -6.21841
rfingers 7.12502
rthumb 0.150523 -36.1981
lclavicle 5.55603e-014 -1.2921e-014
lhumerus -18.2322 -15.303 84.8127
lradius 53.6894
lwrist 18.7178
lhand -22.532 -12.4904
lfingers 7.12502
lthumb 3.89502 17.4537
rfemur -26.832 -9.98575 2.90421
rtibia 52.6674
rfoot -23.8673 -7.46785
rtoes -12.5644
lfemur -28.5383 13.0986 -11.2439
ltibia 53.505
lfoot -21.3439 2.81663
ltoes -12.9097
498
root 6.29225 15.5055 0.0843978 -137.312 -82.3447 141.399
lowerback 19.5233 -2.27688 -1.65254
upperback 7.34354 -3.89397 -2.03753
thorax -3.02748 -2.13977 -0.372308
lowerneck -21.0812 -12.5 -14.4945
upperneck 16.0461 -15.5304 12.398
head 10.7713 -6.78277 4.12476
rclavicle 4.13472e-014 1.19271e-014
rhumerus -68.7457 22.1803 -99.885
rradius 91.0508
rwrist -16.9791
rhand -25.7222 -7.2538
rfingers 7.12502
rthumb 0.81408 -37.232
lclavicle 4.13472e-014 1.19271e-014
lhumerus -18.4594 -15.0625 84.6696
lradius 53.8489
lwrist 19.0606
lhand -22.7746 -12.7272
lfingers 7.12502
lthumb 3.66073 17.2211
rfemur -27.0664 -9.6966 3.32897
rtibia 52.5567
rfoot -23.732 -7.60826
rtoes -12.2328
lfemur -28.7838 13.2435 -10.8887
ltibia 53.6057
lfoot -21.3204 2.86713
ltoes -13.0515
499
root 6.2731 15.517 0.114002 -136.819 -82.2368 140.793
lowerback 19.6458 -2.30214 -1.83281
upperback 7.24501 -3.96347 -2.08315
thorax -3.18743 -2.1715 -0.294634
lowerneck -20.9577 -12.3933 -14.3509
upperneck 16.2438 -15.4303 12.2365
head 10.7784 -6.74822 4.07169
rclavicle 2.40529e-014 -9.34288e-015
rhumerus -68.273 22.4568 -99.5074
rradius 92.1515
rwrist -17.697
rhand -24.7282 -8.02411
rfingers 7.12502
rthumb 1.77407 -37.9965
lclavicle 2.40529e-014 -9.34288e-015
lhumerus -19.0829 -14.5981 84.666
lradius 54.1383
lwrist 19.1621
lhand -22.8189 -12.7465
lfingers 7.12502
lthumb 3.61796 17.2026
rfemur -26.6933 -9.96129 2.99167
rtibia 52.3457
rfoot -23.797 -7.2322
rtoes -11.8564
lfemur -28.5131 13.0846 -11.1428
ltibia 53.6425
lfoot -21.6039 2.959
ltoes -12.7621
500
root 6.25961 15.5302 0.149211 -136.527 -82.0238 140.428
lowerback 19.6172 -2.26651 -1.93422
upperback 7.2035 -3.93972 -2.17985
thorax -3.21767 -2.15891 -0.344938
lowerneck -20.7682 -12.476 -14.4302
upperneck 16.2988 -15.5567 12.2314
head 10.789 -6.81793 4.0631
rclavicle 3.37934e-015 2.14687e-014
rhumerus -67.3559 22.5939 -98.9934
rradius 93.0353
rwrist -18.2239
rhand -24.1554 -8.49011
rfingers 7.12502
rthumb 2.32729 -38.4572
lclavicle 3.37934e-015 2.14687e-014
lhumerus -19.5305 -14.4106 84.6572
lradius 54.2089
lwrist 19.1356
lhand -23.1043 -12.5816
lfingers 7.12502
lthumb 3.34241 17.3719
rfemur -26.4473 -10.1207 2.60472
rtibia 52.0928
rfoot -23.7337 -6.86515
rtoes -11.6251
lfemur -28.333 12.9335 -11.4757
ltibia 53.6687
lfoot -21.8248 3.11915
ltoes -12.4048
501
root 6.26938 15.5368 0.176435 -139.274 -81.8597 143.343
lowerback 19.4992 -2.15583 -1.90226
upperback 7.20286 -3.78559 -2.17138
thorax -3.15959 -2.0834 -0.392923
lowerneck -20.5578 -12.4606 -14.4042
upperneck 16.1344 -15.5621 12.2667
head 10.6941 -6.82732 4.07877
rclavicle -1.45113e-014 3.97569e-016
rhumerus -65.8011 22.7878 -98.4556
rradius 93.5572
rwrist -18.6552
rhand -23.9578 -8.51154
rfingers 7.12502
rthumb 2.51807 -38.4764
lclavicle -1.45113e-014 3.97569e-016
lhumerus -19.6271 -14.2727 84.4559
lradius 53.5982
lwrist 19.2307
lhand -23.4557 -15.1164
lfingers 7.12502
lthumb 3.00303 14.8422
rfemur -26.7205 -9.72187 2.826
rtibia 51.7978
rfoot -23.4278 -6.91201
rtoes -11.6788
lfemur -28.5337 13.0934 -11.3508
ltibia 53.7014
lfoot -21.8314 3.29754
ltoes -12.1551
502
root 6.26971 15.5457 0.2089 -141.54 -81.6719 145.734
lowerback 19.4847 -1.98634 -1.87591
upperback 7.0782 -3.55215 -2.13815
thorax -3.28556 -1.96277 -0.419679
lowerneck -20.3177 -12.6011 -14.6521
upperneck 16.1607 -15.7754 12.4669
head 10.7338 -6.92825 4.15289
rclavicle -5.04913e-014 -3.1408e-014
rhumerus -64.205 22.7745 -97.7669
rradius 93.9265
rwrist -19.3134
rhand -23.4993 -8.94964
rfingers 7.12502
rthumb 2.96093 -38.9088
lclavicle -5.04913e-014 -3.1408e-014
lhumerus -19.9924 -14.3349 84.435
lradius 53.4034
lwrist 19.9131
lhand -23.2842 -15.4379
lfingers 7.12502
lthumb 3.16865 14.5183
rfemur -26.8579 -9.46633 2.93464
rtibia 51.4779
rfoot -23.185 -6.88751
rtoes -11.7634
lfemur -28.5882 13.2616 -11.3108
ltibia 53.7312
lfoot -21.884 3.52165
ltoes -11.877
503
root 6.26422 15.555 0.250751 -143.23 -81.5819 147.487
lowerback 19.5812 -1.98392 -1.88628
upperback 6.95605 -3.5483 -2.11392
thorax -3.46396 -1.95553 -0.381
lowerneck -20.3247 -12.5699 -14.505
upperneck 16.3098 -15.7682 12.3549
head 10.7638 -6.92553 4.09255
rclavicle 6.16232e-015 1.23246e-014
rhumerus -62.3921 23.1153 -97.1621
rradius 94.0586
rwrist -20.3186
rhand -22.7002 -10.3339
rfingers 7.12502
rthumb 3.73262 -40.281
lclavicle 6.16232e-015 1.23246e-014
lhumerus -20.5651 -13.833 84.286
lradius 53.5039
lwrist 20.1316
lhand -23.2201 -14.6611
lfingers 7.12502
lthumb 3.23054 15.2942
rfemur -26.8409 -9.49447 2.95754
rtibia 51.1658
rfoot -23.0498 -6.72199
rtoes -11.8049
lfemur -28.5715 13.3258 -11.3193
ltibia 53.7923
lfoot -22.0484 3.68285
ltoes -11.5978
504
root 6.25615 15.5658 0.295495 -144.125 -81.3568 148.374
lowerback 19.5805 -1.89324 -1.94074
upperback 6.94006 -3.44495 -2.16901
thorax -3.48144 -1.90495 -0.430785
lowerneck -20.2864 -12.661 -14.4972
upperneck 16.3726 -15.9067 12.3291
head 10.7964 -6.99111 4.05502
rclavicle -2.18663e-015 9.14409e-015
rhumerus -60.3222 23.2069 -96.464
rradius 93.9373
rwrist -21.6803
rhand -21.627 -11.6927
rfingers 7.12502
rthumb 4.7689 -41.619
lclavicle -2.18663e-015 9.14409e-015
lhumerus -20.9239 -13.5587 84.1963
lradius 53.4171
lwrist 20.1881
lhand -23.5343 -14.1621
lfingers 7.12502
lthumb 2.92707 15.7975
rfemur -26.7486 -9.55851 2.76063
rtibia 50.8082
rfoot -22.8211 -6.4462
rtoes -12.1686
lfemur -28.4755 13.3761 -11.523
ltibia 53.8416
lfoot -22.3193 3.82521
ltoes -11.5243
505
root 6.25343 15.5731 0.333314 -145.831 -81.1108 150.064
lowerback 19.5465 -1.70423 -2.0832
upperback 6.90587 -3.22322 -2.15224
thorax -3.49238 -1.79661 -0.381696
lowerneck -19.8697 -12.6309 -14.4376
upperneck 16.316 -15.9138 12.2326
head 10.6872 -7.02015 4.02777
rclavicle 1.59028e-015 -1.47101e-014
rhumerus -58.2004 23.194 -95.7888
rradius 93.5388
rwrist -23.4036
rhand -20.4748 -12.0523
rfingers 7.12502
rthumb 5.88142 -41.9507
lclavicle 1.59028e-015 -1.47101e-014
lhumerus -21.2772 -13.4934 84.2012
lradius 53.0356
lwrist 20.3474
lhand -23.8949 -13.6752
lfingers 7.12502
lthumb 2.57887 16.2889
rfemur -26.694 -9.31981 2.74077
rtibia 50.4286
rfoot -22.4909 -6.30981
rtoes -12.206
lfemur -28.3995 13.5378 -11.5533
ltibia 53.8996
lfoot -22.4416 4.00043
ltoes -11.3774
506
root 6.24896 15.5785 0.379583 -148.885 -81.0437 153.088
lowerback 19.5904 -1.57762 -1.94712
upperback 6.84451 -3.02382 -2.01345
thorax -3.58066 -1.69537 -0.351857
lowerneck -20.1434 -12.7668 -14.3824
upperneck 16.6997 -16.091 12.0683
head 10.8789 -7.09519 3.91292
rclavicle -2.36554e-014 1.51076e-014
rhumerus -56.0125 23.2988 -95.0236
rradius 92.8112
rwrist -25.4112
rhand -19.2507 -12.4426
rfingers 7.12502
rthumb 7.06316 -42.3047
lclavicle -2.36554e-014 1.51076e-014
lhumerus -21.7925 -13.2005 84.295
lradius 52.6319
lwrist 20.0797
lhand -24.2731 -12.9897
lfingers 7.12502
lthumb 2.21357 16.9786
rfemur -26.5152 -9.09868 2.99083
rtibia 49.9967
rfoot -22.2353 -6.24876
rtoes -12.102
lfemur -28.3026 13.6441 -11.2842
ltibia 53.9929
lfoot -22.5502 4.11875
ltoes -10.99
507
root 6.24176 15.5869 0.429924 -151.079 -80.9928 155.231
lowerback 19.7536 -1.49178 -1.91364
upperback 6.82422 -2.90667 -1.91079
thorax -3.68323 -1.63749 -0.281361
lowerneck -19.4061 -12.6902 -14.6699
upperneck 16.0566 -16.0678 12.6343
head 10.5956 -7.08923 4.19272
rclavicle -7.95139e-016 1.23246e-014
rhumerus -53.5384 23.4722 -94.1831
rradius 91.769
rwrist -27.7023
rhand -17.7234 -13.8406
rfingers 7.12502
rthumb 8.53724 -43.648
lclavicle -7.95139e-016 1.23246e-014
lhumerus -22.1613 -12.7975 84.2668
lradius 52.1644
lwrist 19.5622
lhand -24.8608 -12.8359
lfingers 7.12502
lthumb 1.64604 17.1375
rfemur -26.266 -9.00153 3.09874
rtibia 49.5221
rfoot -21.9961 -6.19899
rtoes -12.0017
lfemur -28.2093 13.6498 -11.1494
ltibia 54.0976
lfoot -22.7371 4.1356
ltoes -10.7624
